<?xml version="1.0" standalone="no"?>
<!DOCTYPE svg PUBLIC "-//W3C//DTD SVG 20010904//EN"
 "http://www.w3.org/TR/2001/REC-SVG-20010904/DTD/svg10.dtd">
<svg version="1.0" xmlns="http://www.w3.org/2000/svg"
 width="856.000000pt" height="228.000000pt" viewBox="0 0 856.000000 228.000000"
 preserveAspectRatio="xMidYMid meet" stroke="currentColor">

<g transform="translate(0.000000,228.000000) scale(0.100000,-0.100000)"
fill="#000000" stroke="none">
<path d="M721 1982 c-6 -21 -13 -51 -16 -68 -4 -19 34 -208 109 -541 64 -282
116 -515 116 -518 0 -3 -64 -5 -143 -5 l-143 0 -12 -60 c-7 -34 -15 -67 -19
-75 -4 -13 21 -15 175 -15 l180 0 18 -77 c10 -43 18 -102 18 -132 1 -53 0 -55
-44 -86 -57 -40 -66 -81 -24 -114 26 -20 36 -21 374 -21 369 0 406 4 416 45
10 39 -6 65 -52 87 -34 17 -47 31 -59 62 -9 23 -96 381 -194 796 l-178 755
-256 3 -256 2 -10 -38z"/>
<path d="M1832 1768 l3 -252 28 -16 c42 -24 74 0 102 76 30 86 68 146 117 189
50 43 147 93 199 101 34 6 38 11 67 80 l31 74 -275 0 -274 0 2 -252z"/>
<path d="M2137 1204 c-338 -771 -357 -819 -357 -875 l0 -59 281 2 281 3 354
800 354 800 0 73 0 72 -278 0 -278 0 -357 -816z"/>
<path d="M3232 2010 c-12 -5 -27 -21 -32 -36 -16 -40 6 -75 59 -95 24 -8 47
-22 51 -30 5 -8 10 -282 13 -609 4 -633 5 -638 55 -736 28 -56 115 -133 198
-176 103 -54 199 -78 342 -85 l123 -6 -3 84 -3 83 -33 10 c-46 13 -88 65 -101
126 -15 68 -15 1273 -1 1300 6 11 31 29 57 40 26 11 51 26 55 33 14 23 8 64
-13 83 -20 18 -43 19 -383 21 -204 1 -371 -2 -384 -7z"/>
<path d="M4300 2007 c-20 -10 -25 -20 -25 -52 0 -35 4 -42 35 -60 19 -11 55
-40 80 -66 75 -74 75 -72 75 -634 0 -542 -1 -550 -65 -647 -35 -52 -131 -123
-182 -133 -71 -14 -68 -9 -68 -97 l0 -81 43 7 c63 9 199 80 250 130 60 58 91
109 124 203 l28 78 5 535 5 535 30 55 c22 40 46 66 90 95 56 39 60 44 60 80 0
61 -16 65 -255 65 -145 0 -212 -4 -230 -13z"/>
<path d="M5018 2004 c-23 -12 -28 -21 -28 -54 0 -43 19 -62 74 -76 56 -14 56
-10 55 -731 -1 -362 -4 -669 -8 -683 -4 -17 -21 -32 -51 -46 -61 -30 -70 -39
-70 -79 0 -65 10 -66 434 -63 351 3 375 4 395 22 25 22 28 68 6 90 -9 9 -35
21 -58 27 -23 7 -51 21 -62 31 -20 18 -20 33 -23 798 l-2 780 -318 0 c-261 -1
-322 -3 -344 -16z"/>
<path d="M5790 1953 l0 -70 46 -24 c90 -46 89 -44 89 -339 0 -246 -1 -260 -21
-287 -12 -17 -39 -34 -67 -43 l-47 -15 0 -65 0 -65 48 -22 c81 -38 86 -53 93
-308 5 -194 8 -227 27 -275 57 -145 218 -221 407 -192 114 18 202 70 262 155
45 63 56 103 38 137 -26 49 -60 52 -109 9 -20 -17 -43 -29 -53 -27 -16 3 -18
21 -23 188 -4 151 -8 191 -23 217 -47 87 -154 152 -297 180 l-81 16 91 33
c148 53 223 111 274 212 36 73 49 144 43 238 -9 159 -92 278 -241 348 -92 44
-145 54 -316 62 l-140 7 0 -70z"/>
<path d="M7331 1982 c-6 -21 -13 -51 -16 -68 -4 -19 34 -208 109 -541 64 -282
116 -515 116 -518 0 -3 -64 -5 -143 -5 l-143 0 -12 -60 c-7 -34 -15 -67 -19
-75 -4 -13 21 -15 175 -15 l180 0 18 -77 c10 -43 18 -102 18 -132 1 -53 0 -55
-44 -86 -57 -40 -66 -81 -24 -114 26 -20 36 -21 374 -21 369 0 406 4 416 45
10 39 -6 65 -52 87 -34 17 -47 31 -59 62 -9 23 -96 381 -194 796 l-178 755
-256 3 -256 2 -10 -38z"/>
<path d="M491 1142 c-79 -290 -156 -554 -171 -587 -33 -73 -67 -108 -142 -146
-58 -29 -74 -53 -63 -90 13 -40 60 -49 264 -49 203 0 237 6 247 46 10 41 -6
64 -67 94 -65 33 -89 67 -89 126 0 20 52 228 117 462 l116 425 -28 116 c-15
64 -30 119 -34 123 -3 4 -71 -230 -150 -520z"/>
<path d="M7101 1142 c-79 -290 -156 -554 -171 -587 -33 -73 -67 -108 -142
-146 -58 -29 -74 -53 -63 -90 13 -40 60 -49 264 -49 203 0 237 6 247 46 10 41
-6 64 -67 94 -65 33 -89 67 -89 126 0 20 52 228 117 462 l116 425 -28 116
c-15 64 -30 119 -34 123 -3 4 -71 -230 -150 -520z"/>
<path d="M2947 808 c-9 -7 -30 -47 -47 -88 -76 -185 -145 -249 -324 -304 l-69
-21 -28 -63 -28 -62 300 0 300 0 -3 256 c-3 255 -3 256 -27 275 -27 22 -50 24
-74 7z"/>
</g>
</svg>
