<?xml version="1.0" standalone="no"?>
<!DOCTYPE svg PUBLIC "-//W3C//DTD SVG 20010904//EN"
 "http://www.w3.org/TR/2001/REC-SVG-20010904/DTD/svg10.dtd">
<svg version="1.0" xmlns="http://www.w3.org/2000/svg"
 width="1216.000000pt" height="552.000000pt" viewBox="0 0 1216.000000 552.000000"
 preserveAspectRatio="xMidYMid meet">

<g transform="translate(0.000000,552.000000) scale(0.100000,-0.100000)"
fill="#000000" stroke="none">
<path d="M760 4508 c0 -12 -466 -3528 -474 -3576 l-3 -22 486 2 486 3 27 305
c14 168 27 313 27 323 1 15 16 17 171 17 148 0 170 -2 170 -16 0 -29 40 -548
46 -591 l5 -43 480 0 479 0 -5 23 c-5 23 -535 3569 -535 3581 0 3 -306 6 -680
6 -528 0 -680 -3 -680 -12z m756 -1215 c19 -213 48 -521 65 -683 17 -162 33
-321 36 -352 l6 -58 -163 0 -163 0 7 83 c12 149 66 617 107 922 21 165 45 341
51 392 7 51 14 91 16 89 2 -2 19 -179 38 -393z"/>
<path d="M2860 4160 l0 -360 319 -2 319 -3 -359 -1175 -359 -1175 0 -267 0
-268 865 0 865 0 0 360 0 360 -351 0 c-329 0 -350 1 -345 18 3 9 161 498 351
1087 l345 1069 0 358 0 358 -825 0 -825 0 0 -360z"/>
<path d="M4733 3133 c5 -1350 9 -1516 38 -1638 94 -392 465 -638 999 -661 516
-23 884 170 1042 549 64 150 61 79 65 1680 l4 1457 -470 0 -470 0 -3 -1482
c-3 -1411 -4 -1485 -21 -1525 -23 -52 -71 -78 -129 -70 -52 7 -84 38 -99 96
-9 35 -13 405 -16 1514 l-4 1467 -471 0 -470 0 5 -1387z"/>
<path d="M7250 2716 l0 -1806 470 0 470 0 0 815 0 815 38 0 c52 0 153 -27 175
-48 63 -56 67 -115 67 -903 l0 -679 442 0 441 0 -6 677 c-4 373 -11 712 -17
753 -19 140 -109 280 -226 350 -32 19 -105 51 -163 72 -68 23 -96 37 -78 37
50 1 171 33 233 61 166 75 225 205 244 537 13 239 -10 493 -59 635 -38 111
-82 181 -166 265 -133 134 -237 174 -535 204 -58 6 -381 13 -717 16 l-613 5 0
-1806z m1111 1158 c96 -39 112 -100 107 -408 -3 -202 -5 -225 -25 -269 -27
-59 -75 -83 -181 -93 l-72 -7 0 403 0 403 66 -7 c36 -4 83 -14 105 -22z"/>
<path d="M9960 4508 c0 -12 -466 -3528 -474 -3576 l-3 -22 486 2 486 3 27 305
c14 168 27 313 27 323 1 15 16 17 171 17 148 0 170 -2 170 -16 0 -29 40 -548
46 -591 l5 -43 480 0 479 0 -5 23 c-5 23 -535 3569 -535 3581 0 3 -306 6 -680
6 -528 0 -680 -3 -680 -12z m756 -1215 c19 -213 48 -521 65 -683 17 -162 33
-321 36 -352 l6 -58 -163 0 -163 0 7 83 c12 149 66 617 107 922 21 165 45 341
51 392 7 51 14 91 16 89 2 -2 19 -179 38 -393z"/>
</g>
</svg>
